<mxfile host="app.diagrams.net" modified="2023-05-05T18:10:36.901Z" agent="Mozilla/5.0 (X11; Linux x86_64; rv:102.0) Gecko/20100101 Firefox/102.0" etag="frrApdLHOs0g2_zQfVkJ" version="21.2.8" type="device">
  <diagram name="Page-1" id="065T2t1PhLZb1BEJfij4">
    <mxGraphModel dx="2602" dy="3438" grid="1" gridSize="10" guides="1" tooltips="1" connect="1" arrows="1" fold="1" page="1" pageScale="1" pageWidth="5000" pageHeight="5000" math="0" shadow="0">
      <root>
        <mxCell id="0" />
        <mxCell id="1" parent="0" />
        <mxCell id="gTSX4XcYXar_OQSmipjv-1" value="" style="rounded=0;whiteSpace=wrap;html=1;" vertex="1" parent="1">
          <mxGeometry x="360" y="200" width="1960" height="2060" as="geometry" />
        </mxCell>
        <mxCell id="gTSX4XcYXar_OQSmipjv-2" value="" style="rounded=0;whiteSpace=wrap;html=1;" vertex="1" parent="1">
          <mxGeometry x="450" y="290" width="890" height="1850" as="geometry" />
        </mxCell>
        <mxCell id="gTSX4XcYXar_OQSmipjv-3" value="" style="rounded=0;whiteSpace=wrap;html=1;" vertex="1" parent="1">
          <mxGeometry x="1410" y="290" width="820" height="1860" as="geometry" />
        </mxCell>
        <mxCell id="gTSX4XcYXar_OQSmipjv-27" style="edgeStyle=orthogonalEdgeStyle;rounded=0;orthogonalLoop=1;jettySize=auto;html=1;entryX=0;entryY=0.5;entryDx=0;entryDy=0;" edge="1" parent="1" source="gTSX4XcYXar_OQSmipjv-4" target="gTSX4XcYXar_OQSmipjv-6">
          <mxGeometry relative="1" as="geometry" />
        </mxCell>
        <mxCell id="gTSX4XcYXar_OQSmipjv-31" style="edgeStyle=orthogonalEdgeStyle;rounded=0;orthogonalLoop=1;jettySize=auto;html=1;entryX=0;entryY=0.5;entryDx=0;entryDy=0;" edge="1" parent="1" source="gTSX4XcYXar_OQSmipjv-4" target="gTSX4XcYXar_OQSmipjv-29">
          <mxGeometry relative="1" as="geometry" />
        </mxCell>
        <mxCell id="gTSX4XcYXar_OQSmipjv-48" style="edgeStyle=orthogonalEdgeStyle;rounded=0;orthogonalLoop=1;jettySize=auto;html=1;entryX=0;entryY=0.5;entryDx=0;entryDy=0;" edge="1" parent="1" source="gTSX4XcYXar_OQSmipjv-4" target="gTSX4XcYXar_OQSmipjv-41">
          <mxGeometry relative="1" as="geometry" />
        </mxCell>
        <mxCell id="gTSX4XcYXar_OQSmipjv-52" style="edgeStyle=orthogonalEdgeStyle;rounded=0;orthogonalLoop=1;jettySize=auto;html=1;entryX=0;entryY=0.5;entryDx=0;entryDy=0;" edge="1" parent="1" source="gTSX4XcYXar_OQSmipjv-4" target="gTSX4XcYXar_OQSmipjv-50">
          <mxGeometry relative="1" as="geometry">
            <Array as="points">
              <mxPoint x="387" y="1277" />
              <mxPoint x="387" y="1730" />
              <mxPoint x="465" y="1730" />
              <mxPoint x="465" y="1725" />
            </Array>
          </mxGeometry>
        </mxCell>
        <mxCell id="gTSX4XcYXar_OQSmipjv-65" style="edgeStyle=orthogonalEdgeStyle;rounded=0;orthogonalLoop=1;jettySize=auto;html=1;" edge="1" parent="1" source="gTSX4XcYXar_OQSmipjv-4" target="gTSX4XcYXar_OQSmipjv-58">
          <mxGeometry relative="1" as="geometry" />
        </mxCell>
        <mxCell id="gTSX4XcYXar_OQSmipjv-4" value="Actor" style="shape=umlActor;verticalLabelPosition=bottom;verticalAlign=top;html=1;outlineConnect=0;" vertex="1" parent="1">
          <mxGeometry x="180" y="1145" width="130" height="265" as="geometry" />
        </mxCell>
        <mxCell id="gTSX4XcYXar_OQSmipjv-16" style="edgeStyle=orthogonalEdgeStyle;rounded=0;orthogonalLoop=1;jettySize=auto;html=1;entryX=0;entryY=0.593;entryDx=0;entryDy=0;entryPerimeter=0;" edge="1" parent="1" source="gTSX4XcYXar_OQSmipjv-6" target="gTSX4XcYXar_OQSmipjv-10">
          <mxGeometry relative="1" as="geometry" />
        </mxCell>
        <mxCell id="gTSX4XcYXar_OQSmipjv-18" style="edgeStyle=orthogonalEdgeStyle;rounded=0;orthogonalLoop=1;jettySize=auto;html=1;" edge="1" parent="1" source="gTSX4XcYXar_OQSmipjv-6" target="gTSX4XcYXar_OQSmipjv-12">
          <mxGeometry relative="1" as="geometry" />
        </mxCell>
        <mxCell id="gTSX4XcYXar_OQSmipjv-19" style="edgeStyle=orthogonalEdgeStyle;rounded=0;orthogonalLoop=1;jettySize=auto;html=1;entryX=0.005;entryY=0.547;entryDx=0;entryDy=0;entryPerimeter=0;" edge="1" parent="1" source="gTSX4XcYXar_OQSmipjv-6" target="gTSX4XcYXar_OQSmipjv-14">
          <mxGeometry relative="1" as="geometry" />
        </mxCell>
        <mxCell id="gTSX4XcYXar_OQSmipjv-6" value="" style="ellipse;whiteSpace=wrap;html=1;" vertex="1" parent="1">
          <mxGeometry x="470" y="460" width="200" height="150" as="geometry" />
        </mxCell>
        <mxCell id="gTSX4XcYXar_OQSmipjv-7" value="&lt;font style=&quot;font-size: 26px;&quot;&gt;Discord Input&lt;/font&gt;" style="text;strokeColor=none;align=center;fillColor=none;html=1;verticalAlign=middle;whiteSpace=wrap;rounded=0;" vertex="1" parent="1">
          <mxGeometry x="830" y="240" width="80" height="40" as="geometry" />
        </mxCell>
        <mxCell id="gTSX4XcYXar_OQSmipjv-8" value="&lt;font style=&quot;font-size: 21px;&quot;&gt;/random&lt;/font&gt;" style="text;strokeColor=none;align=center;fillColor=none;html=1;verticalAlign=middle;whiteSpace=wrap;rounded=0;" vertex="1" parent="1">
          <mxGeometry x="510" y="500" width="110" height="70" as="geometry" />
        </mxCell>
        <mxCell id="gTSX4XcYXar_OQSmipjv-23" style="edgeStyle=orthogonalEdgeStyle;rounded=0;orthogonalLoop=1;jettySize=auto;html=1;entryX=0;entryY=0.5;entryDx=0;entryDy=0;" edge="1" parent="1" source="gTSX4XcYXar_OQSmipjv-10" target="gTSX4XcYXar_OQSmipjv-22">
          <mxGeometry relative="1" as="geometry">
            <Array as="points">
              <mxPoint x="1360" y="375" />
              <mxPoint x="1360" y="535" />
            </Array>
          </mxGeometry>
        </mxCell>
        <mxCell id="gTSX4XcYXar_OQSmipjv-10" value="" style="ellipse;whiteSpace=wrap;html=1;" vertex="1" parent="1">
          <mxGeometry x="795" y="300" width="200" height="150" as="geometry" />
        </mxCell>
        <mxCell id="gTSX4XcYXar_OQSmipjv-11" value="&lt;font style=&quot;font-size: 21px;&quot;&gt;by movie or trilogy or non disney&lt;br&gt;&lt;/font&gt;" style="text;strokeColor=none;align=center;fillColor=none;html=1;verticalAlign=middle;whiteSpace=wrap;rounded=0;" vertex="1" parent="1">
          <mxGeometry x="835" y="340" width="110" height="70" as="geometry" />
        </mxCell>
        <mxCell id="gTSX4XcYXar_OQSmipjv-24" style="edgeStyle=orthogonalEdgeStyle;rounded=0;orthogonalLoop=1;jettySize=auto;html=1;" edge="1" parent="1" source="gTSX4XcYXar_OQSmipjv-12" target="gTSX4XcYXar_OQSmipjv-21">
          <mxGeometry relative="1" as="geometry" />
        </mxCell>
        <mxCell id="gTSX4XcYXar_OQSmipjv-12" value="" style="ellipse;whiteSpace=wrap;html=1;" vertex="1" parent="1">
          <mxGeometry x="790" y="460" width="200" height="150" as="geometry" />
        </mxCell>
        <mxCell id="gTSX4XcYXar_OQSmipjv-13" value="&lt;font style=&quot;font-size: 21px;&quot;&gt;By Character by autocomplete&lt;/font&gt;" style="text;strokeColor=none;align=center;fillColor=none;html=1;verticalAlign=middle;whiteSpace=wrap;rounded=0;" vertex="1" parent="1">
          <mxGeometry x="830" y="500" width="110" height="70" as="geometry" />
        </mxCell>
        <mxCell id="gTSX4XcYXar_OQSmipjv-26" style="edgeStyle=orthogonalEdgeStyle;rounded=0;orthogonalLoop=1;jettySize=auto;html=1;entryX=0;entryY=0.5;entryDx=0;entryDy=0;" edge="1" parent="1" source="gTSX4XcYXar_OQSmipjv-14" target="gTSX4XcYXar_OQSmipjv-21">
          <mxGeometry relative="1" as="geometry" />
        </mxCell>
        <mxCell id="gTSX4XcYXar_OQSmipjv-14" value="" style="ellipse;whiteSpace=wrap;html=1;" vertex="1" parent="1">
          <mxGeometry x="790" y="619" width="200" height="150" as="geometry" />
        </mxCell>
        <mxCell id="gTSX4XcYXar_OQSmipjv-15" value="&lt;font style=&quot;font-size: 21px;&quot;&gt;both^^&lt;/font&gt;" style="text;strokeColor=none;align=center;fillColor=none;html=1;verticalAlign=middle;whiteSpace=wrap;rounded=0;" vertex="1" parent="1">
          <mxGeometry x="830" y="659" width="110" height="70" as="geometry" />
        </mxCell>
        <mxCell id="gTSX4XcYXar_OQSmipjv-21" value="" style="ellipse;whiteSpace=wrap;html=1;" vertex="1" parent="1">
          <mxGeometry x="1720" y="460" width="200" height="150" as="geometry" />
        </mxCell>
        <mxCell id="gTSX4XcYXar_OQSmipjv-22" value="&lt;font style=&quot;font-size: 21px;&quot;&gt;Random Quote&lt;/font&gt;" style="text;strokeColor=none;align=center;fillColor=none;html=1;verticalAlign=middle;whiteSpace=wrap;rounded=0;" vertex="1" parent="1">
          <mxGeometry x="1760" y="500" width="110" height="70" as="geometry" />
        </mxCell>
        <mxCell id="gTSX4XcYXar_OQSmipjv-35" style="edgeStyle=orthogonalEdgeStyle;rounded=0;orthogonalLoop=1;jettySize=auto;html=1;" edge="1" parent="1" source="gTSX4XcYXar_OQSmipjv-29" target="gTSX4XcYXar_OQSmipjv-33">
          <mxGeometry relative="1" as="geometry" />
        </mxCell>
        <mxCell id="gTSX4XcYXar_OQSmipjv-29" value="" style="ellipse;whiteSpace=wrap;html=1;" vertex="1" parent="1">
          <mxGeometry x="470" y="910" width="200" height="150" as="geometry" />
        </mxCell>
        <mxCell id="gTSX4XcYXar_OQSmipjv-30" value="/&lt;font style=&quot;font-size: 21px;&quot;&gt;prequelmemes&lt;/font&gt;" style="text;strokeColor=none;align=center;fillColor=none;html=1;verticalAlign=middle;whiteSpace=wrap;rounded=0;" vertex="1" parent="1">
          <mxGeometry x="510" y="950" width="110" height="70" as="geometry" />
        </mxCell>
        <mxCell id="gTSX4XcYXar_OQSmipjv-39" style="edgeStyle=orthogonalEdgeStyle;rounded=0;orthogonalLoop=1;jettySize=auto;html=1;entryX=0;entryY=0.5;entryDx=0;entryDy=0;" edge="1" parent="1" source="gTSX4XcYXar_OQSmipjv-33" target="gTSX4XcYXar_OQSmipjv-36">
          <mxGeometry relative="1" as="geometry" />
        </mxCell>
        <mxCell id="gTSX4XcYXar_OQSmipjv-33" value="" style="ellipse;whiteSpace=wrap;html=1;" vertex="1" parent="1">
          <mxGeometry x="770" y="910" width="200" height="150" as="geometry" />
        </mxCell>
        <mxCell id="gTSX4XcYXar_OQSmipjv-34" value="&lt;font style=&quot;font-size: 21px;&quot;&gt;selection from a list&lt;/font&gt;" style="text;strokeColor=none;align=center;fillColor=none;html=1;verticalAlign=middle;whiteSpace=wrap;rounded=0;" vertex="1" parent="1">
          <mxGeometry x="810" y="950" width="110" height="70" as="geometry" />
        </mxCell>
        <mxCell id="gTSX4XcYXar_OQSmipjv-36" value="" style="ellipse;whiteSpace=wrap;html=1;" vertex="1" parent="1">
          <mxGeometry x="1715" y="910" width="200" height="150" as="geometry" />
        </mxCell>
        <mxCell id="gTSX4XcYXar_OQSmipjv-37" value="&lt;font style=&quot;font-size: 21px;&quot;&gt;Meme&lt;/font&gt;" style="text;strokeColor=none;align=center;fillColor=none;html=1;verticalAlign=middle;whiteSpace=wrap;rounded=0;" vertex="1" parent="1">
          <mxGeometry x="1755" y="950" width="110" height="70" as="geometry" />
        </mxCell>
        <mxCell id="gTSX4XcYXar_OQSmipjv-38" value="&lt;font style=&quot;font-size: 26px;&quot;&gt;Discord Output&lt;br&gt;&lt;/font&gt;" style="text;strokeColor=none;align=center;fillColor=none;html=1;verticalAlign=middle;whiteSpace=wrap;rounded=0;" vertex="1" parent="1">
          <mxGeometry x="1770" y="240" width="80" height="40" as="geometry" />
        </mxCell>
        <mxCell id="gTSX4XcYXar_OQSmipjv-40" style="edgeStyle=orthogonalEdgeStyle;rounded=0;orthogonalLoop=1;jettySize=auto;html=1;" edge="1" parent="1" source="gTSX4XcYXar_OQSmipjv-41" target="gTSX4XcYXar_OQSmipjv-44">
          <mxGeometry relative="1" as="geometry" />
        </mxCell>
        <mxCell id="gTSX4XcYXar_OQSmipjv-41" value="" style="ellipse;whiteSpace=wrap;html=1;" vertex="1" parent="1">
          <mxGeometry x="470" y="1202.5" width="200" height="150" as="geometry" />
        </mxCell>
        <mxCell id="gTSX4XcYXar_OQSmipjv-42" value="&lt;font style=&quot;font-size: 21px;&quot;&gt;/originaltrilogymemes&lt;/font&gt;" style="text;strokeColor=none;align=center;fillColor=none;html=1;verticalAlign=middle;whiteSpace=wrap;rounded=0;" vertex="1" parent="1">
          <mxGeometry x="510" y="1242.5" width="110" height="70" as="geometry" />
        </mxCell>
        <mxCell id="gTSX4XcYXar_OQSmipjv-43" style="edgeStyle=orthogonalEdgeStyle;rounded=0;orthogonalLoop=1;jettySize=auto;html=1;entryX=0;entryY=0.5;entryDx=0;entryDy=0;" edge="1" parent="1" source="gTSX4XcYXar_OQSmipjv-44" target="gTSX4XcYXar_OQSmipjv-46">
          <mxGeometry relative="1" as="geometry" />
        </mxCell>
        <mxCell id="gTSX4XcYXar_OQSmipjv-44" value="" style="ellipse;whiteSpace=wrap;html=1;" vertex="1" parent="1">
          <mxGeometry x="770" y="1202.5" width="200" height="150" as="geometry" />
        </mxCell>
        <mxCell id="gTSX4XcYXar_OQSmipjv-45" value="&lt;font style=&quot;font-size: 21px;&quot;&gt;selection from a list&lt;/font&gt;" style="text;strokeColor=none;align=center;fillColor=none;html=1;verticalAlign=middle;whiteSpace=wrap;rounded=0;" vertex="1" parent="1">
          <mxGeometry x="810" y="1242.5" width="110" height="70" as="geometry" />
        </mxCell>
        <mxCell id="gTSX4XcYXar_OQSmipjv-46" value="" style="ellipse;whiteSpace=wrap;html=1;" vertex="1" parent="1">
          <mxGeometry x="1715" y="1202.5" width="200" height="150" as="geometry" />
        </mxCell>
        <mxCell id="gTSX4XcYXar_OQSmipjv-47" value="&lt;font style=&quot;font-size: 21px;&quot;&gt;Meme&lt;/font&gt;" style="text;strokeColor=none;align=center;fillColor=none;html=1;verticalAlign=middle;whiteSpace=wrap;rounded=0;" vertex="1" parent="1">
          <mxGeometry x="1755" y="1242.5" width="110" height="70" as="geometry" />
        </mxCell>
        <mxCell id="gTSX4XcYXar_OQSmipjv-55" style="edgeStyle=orthogonalEdgeStyle;rounded=0;orthogonalLoop=1;jettySize=auto;html=1;" edge="1" parent="1" source="gTSX4XcYXar_OQSmipjv-50" target="gTSX4XcYXar_OQSmipjv-53">
          <mxGeometry relative="1" as="geometry" />
        </mxCell>
        <mxCell id="gTSX4XcYXar_OQSmipjv-50" value="" style="ellipse;whiteSpace=wrap;html=1;" vertex="1" parent="1">
          <mxGeometry x="470" y="1650" width="200" height="150" as="geometry" />
        </mxCell>
        <mxCell id="gTSX4XcYXar_OQSmipjv-51" value="&lt;font style=&quot;font-size: 21px;&quot;&gt;/help&lt;/font&gt;" style="text;strokeColor=none;align=center;fillColor=none;html=1;verticalAlign=middle;whiteSpace=wrap;rounded=0;" vertex="1" parent="1">
          <mxGeometry x="510" y="1690" width="110" height="70" as="geometry" />
        </mxCell>
        <mxCell id="gTSX4XcYXar_OQSmipjv-53" value="" style="ellipse;whiteSpace=wrap;html=1;" vertex="1" parent="1">
          <mxGeometry x="1720" y="1650" width="200" height="150" as="geometry" />
        </mxCell>
        <mxCell id="gTSX4XcYXar_OQSmipjv-54" value="&lt;font style=&quot;font-size: 21px;&quot;&gt;Embed giving all commands&lt;/font&gt;" style="text;strokeColor=none;align=center;fillColor=none;html=1;verticalAlign=middle;whiteSpace=wrap;rounded=0;" vertex="1" parent="1">
          <mxGeometry x="1760" y="1690" width="110" height="70" as="geometry" />
        </mxCell>
        <mxCell id="gTSX4XcYXar_OQSmipjv-57" style="edgeStyle=orthogonalEdgeStyle;rounded=0;orthogonalLoop=1;jettySize=auto;html=1;" edge="1" parent="1" source="gTSX4XcYXar_OQSmipjv-58" target="gTSX4XcYXar_OQSmipjv-61">
          <mxGeometry relative="1" as="geometry" />
        </mxCell>
        <mxCell id="gTSX4XcYXar_OQSmipjv-58" value="" style="ellipse;whiteSpace=wrap;html=1;" vertex="1" parent="1">
          <mxGeometry x="470" y="1400" width="200" height="150" as="geometry" />
        </mxCell>
        <mxCell id="gTSX4XcYXar_OQSmipjv-59" value="/&lt;font style=&quot;font-size: 21px;&quot;&gt;sequelmemes&lt;/font&gt;" style="text;strokeColor=none;align=center;fillColor=none;html=1;verticalAlign=middle;whiteSpace=wrap;rounded=0;" vertex="1" parent="1">
          <mxGeometry x="510" y="1440" width="110" height="70" as="geometry" />
        </mxCell>
        <mxCell id="gTSX4XcYXar_OQSmipjv-60" style="edgeStyle=orthogonalEdgeStyle;rounded=0;orthogonalLoop=1;jettySize=auto;html=1;entryX=0;entryY=0.5;entryDx=0;entryDy=0;" edge="1" parent="1" source="gTSX4XcYXar_OQSmipjv-61" target="gTSX4XcYXar_OQSmipjv-63">
          <mxGeometry relative="1" as="geometry" />
        </mxCell>
        <mxCell id="gTSX4XcYXar_OQSmipjv-61" value="" style="ellipse;whiteSpace=wrap;html=1;" vertex="1" parent="1">
          <mxGeometry x="770" y="1400" width="200" height="150" as="geometry" />
        </mxCell>
        <mxCell id="gTSX4XcYXar_OQSmipjv-62" value="&lt;font style=&quot;font-size: 21px;&quot;&gt;selection from a list&lt;/font&gt;" style="text;strokeColor=none;align=center;fillColor=none;html=1;verticalAlign=middle;whiteSpace=wrap;rounded=0;" vertex="1" parent="1">
          <mxGeometry x="810" y="1440" width="110" height="70" as="geometry" />
        </mxCell>
        <mxCell id="gTSX4XcYXar_OQSmipjv-63" value="" style="ellipse;whiteSpace=wrap;html=1;" vertex="1" parent="1">
          <mxGeometry x="1715" y="1400" width="200" height="150" as="geometry" />
        </mxCell>
        <mxCell id="gTSX4XcYXar_OQSmipjv-64" value="&lt;font style=&quot;font-size: 21px;&quot;&gt;Meme&lt;/font&gt;" style="text;strokeColor=none;align=center;fillColor=none;html=1;verticalAlign=middle;whiteSpace=wrap;rounded=0;" vertex="1" parent="1">
          <mxGeometry x="1755" y="1440" width="110" height="70" as="geometry" />
        </mxCell>
      </root>
    </mxGraphModel>
  </diagram>
</mxfile>
